<svg viewBox="0 0 33 33" version="1.1" xmlns="http://www.w3.org/2000/svg">
    <g stroke="none" stroke-width="1" fill="none" fill-rule="evenodd">
        <path fill="#037BFF" fill-rule="nonzero" d="M33,22.2827 L32.8272656,12.2974 C30.5120063,22.4838 20.7675188,25.533 17.4502969,25.8681 C27.6785438,28.6492 33,22.2827 33,22.2827 Z M31.79055,8.0754 L23.6701781,1.90995 C30.4083656,10.0859 26.6764781,19.2335 24.8796281,21.9141 C33.5183063,15.9497 31.79055,8.0754 31.79055,8.0754 Z M19.488975,-3.55271368e-15 L9.43351406,2.37906 C20.2492125,2.27854 25.501575,10.7895 26.5727344,13.8052 C27.0911437,3.55184 19.488975,-3.55271368e-15 19.488975,-3.55271368e-15 Z M5.45969531,4.2555 L1.07121094,13.3026 C7.77487219,5.12671 17.8649625,6.56754 20.9749031,7.6733 C13.0618125,0.837695 5.45969531,4.2555 5.45969531,4.2555 Z M0,17.6586 L4.80313969,26.5047 C2.10785437,16.4189 9.60628969,9.65026 12.3706687,7.90786 C1.96963594,9.91833 0,17.6586 0,17.6586 Z M7.25654531,29.889 L17.3812031,31.933 C7.60209656,27.5099 6.98010844,17.6586 7.36021688,14.4754 C2.34974438,23.489 7.25654531,29.889 7.25654531,29.889 Z M9.60628969,22.6848 C11.9560031,24.9298 20.5947844,30.2911 30.2701781,25.6 L22.3570875,32.134 C22.3570875,32.1675 13.8219469,32.1005 9.60628969,22.6848 Z" id="Shape"></path>
    </g>
</svg>
